<?xml version="1.0" standalone="no"?>
<!DOCTYPE svg PUBLIC "-//W3C//DTD SVG 20010904//EN"
 "http://www.w3.org/TR/2001/REC-SVG-20010904/DTD/svg10.dtd">
<svg version="1.0" xmlns="http://www.w3.org/2000/svg"
 width="425.000000pt" height="425.000000pt" viewBox="0 0 425.000000 425.000000"
 preserveAspectRatio="xMidYMid meet">
<metadata>
Created by potrace 1.11, written by Peter Selinger 2001-2013
</metadata>
<g transform="translate(0.000000,425.000000) scale(0.100000,-0.100000)"
fill="#000000" stroke="none">
<path d="M0 2125 l0 -2125 2125 0 2125 0 0 2125 0 2125 -2125 0 -2125 0 0
-2125z m858 1196 c48 -25 72 -66 72 -126 l0 -35 -60 0 c-60 0 -60 0 -60 30 0
39 -29 53 -95 48 -61 -5 -106 -33 -129 -82 -22 -46 -21 -133 3 -176 23 -43 90
-80 145 -80 45 0 113 27 135 53 20 25 28 21 58 -24 l27 -42 -38 -33 c-50 -43
-114 -64 -197 -64 -201 0 -330 193 -258 384 25 68 99 139 168 161 65 21 174
14 229 -14z m1473 1 c38 -19 62 -41 81 -72 31 -51 51 -135 41 -180 l-5 -30
-185 0 -185 0 7 -27 c26 -105 151 -145 261 -83 l52 29 26 -42 25 -42 -31 -27
c-17 -15 -52 -34 -76 -43 -53 -18 -163 -19 -209 -2 -141 52 -214 207 -169 361
45 152 227 231 367 158z m510 17 c47 -16 93 -52 119 -93 25 -42 46 -142 36
-179 l-6 -27 -186 0 -185 0 6 -22 c14 -46 46 -86 81 -103 53 -25 140 -17 192
18 l40 26 27 -41 27 -40 -23 -24 c-34 -36 -119 -64 -197 -64 -85 0 -151 29
-209 93 -129 140 -73 389 102 451 49 18 131 20 176 5z m853 0 c61 -17 96 -58
96 -113 l0 -46 -55 0 c-51 0 -55 2 -55 24 0 43 -93 59 -137 24 -38 -31 -3 -66
112 -113 43 -18 86 -45 113 -70 38 -39 42 -47 42 -92 0 -35 -7 -60 -23 -84
-65 -99 -257 -107 -363 -15 l-38 33 33 41 32 42 37 -29 c74 -58 171 -66 194
-16 16 35 -6 56 -100 95 -137 57 -178 104 -169 193 3 37 11 56 34 79 53 53
156 72 247 47z m-2340 -24 c37 -20 48 -22 52 -11 8 22 57 38 105 34 l44 -3 3
-52 c3 -48 1 -53 -17 -53 -20 0 -21 -6 -23 -217 l-3 -218 -57 -3 c-56 -3 -58
-2 -58 23 0 30 0 30 -47 3 -32 -19 -53 -23 -128 -23 -81 0 -95 3 -143 29 -95
53 -142 136 -142 253 0 77 19 125 68 176 64 66 112 85 223 86 63 1 84 -3 123
-24z m371 15 c14 -5 30 -22 36 -36 l10 -27 27 25 c40 38 65 48 116 48 l46 0 0
-60 0 -60 -41 0 c-53 0 -92 -23 -121 -74 -21 -37 -23 -57 -28 -196 l-5 -155
-57 -3 -58 -3 -2 218 -3 218 -32 3 c-32 3 -33 4 -33 51 0 26 3 51 7 54 10 11
108 8 138 -3z m1430 -2 c16 -7 28 -23 32 -41 l6 -28 31 29 c43 41 68 52 115
52 l41 0 0 -60 0 -60 -37 0 c-48 0 -97 -30 -120 -72 -14 -27 -19 -65 -23 -193
l-5 -160 -60 0 -60 0 -3 218 -2 217 -30 0 c-30 0 -30 1 -30 55 l0 55 60 0 c32
0 71 -5 85 -12z m-1490 -785 c130 -32 241 -119 290 -226 58 -127 58 -128 64
-715 7 -634 -7 -572 133 -572 l88 0 0 -75 0 -75 -114 0 c-120 0 -167 10 -204
44 -58 52 -57 34 -63 631 -5 494 -7 556 -23 605 -49 148 -124 215 -270 241
-256 44 -552 -115 -675 -364 -75 -153 -74 -145 -79 -679 l-3 -478 -80 0 -79 0
0 734 0 735 -22 15 c-16 11 -46 16 -105 16 l-83 0 0 76 0 77 124 -5 c150 -6
189 -21 224 -88 19 -38 22 -60 22 -153 l0 -109 41 60 c48 73 155 174 233 221
158 95 399 130 581 84z m2075 -81 l0 -69 -502 -630 c-277 -346 -523 -653 -547
-682 l-43 -52 490 3 c359 2 494 6 503 15 6 6 14 52 17 102 l5 91 74 0 75 0 -4
-129 c-3 -144 -12 -166 -79 -206 -33 -19 -55 -20 -666 -23 l-633 -3 0 68 0 68
184 230 c100 127 345 434 544 683 l361 453 -449 -3 c-343 -2 -452 -6 -462 -16
-7 -7 -14 -50 -16 -107 l-4 -95 -74 0 -74 0 0 118 c1 171 28 221 131 241 24 5
297 9 607 10 l562 1 0 -68z"/>
<path d="M2160 3232 c-19 -9 -45 -33 -58 -52 l-23 -35 122 -3 c67 -1 124 -1
126 2 11 11 -29 76 -56 90 -39 21 -68 20 -111 -2z"/>
<path d="M2704 3236 c-33 -15 -74 -60 -74 -82 0 -11 25 -14 120 -14 77 0 120
4 120 10 0 25 -32 71 -60 85 -35 18 -65 19 -106 1z"/>
<path d="M1155 3226 c-89 -41 -122 -153 -72 -246 29 -56 74 -80 148 -80 101 0
162 64 162 170 0 67 -24 115 -73 143 -41 25 -126 31 -165 13z"/>
</g>
</svg>
